<svg width="900" height="700" viewBox="0 0 900 700" xmlns="http://www.w3.org/2000/svg" aria-hidden="true">
  <defs>
    <linearGradient id="g" x1="0" y1="0" x2="1" y2="1">
      <stop offset="0" stop-color="#22C55E" stop-opacity="0.35"/>
      <stop offset="0.5" stop-color="#F7C948" stop-opacity="0.25"/>
      <stop offset="1" stop-color="#38BDF8" stop-opacity="0.25"/>
    </linearGradient>
  </defs>
  <rect width="900" height="700" fill="url(#g)"/>
  <circle cx="180" cy="160" r="110" fill="#fff" opacity="0.2"/>
  <circle cx="710" cy="520" r="170" fill="#fff" opacity="0.18"/>
  <path d="M0 520C150 450 260 580 420 510C610 428 690 330 900 400V700H0V520Z" fill="#0B1F4D" opacity="0.08"/>
  <g opacity="0.22" stroke="#0B1F4D" stroke-width="2">
    <path d="M135 301h110v80H135z" fill="none"/>
    <path d="M155 325h70M155 347h50"/>
    <path d="M600 120h150v105H600z" fill="none"/>
    <path d="M630 155h85M630 180h60"/>
    <circle cx="474" cy="260" r="56" fill="none"/>
    <path d="M448 258l18 18 36-42"/>
  </g>
</svg>
